Coordinates
version=1
nRows=18
nColumns=33
inDegrees=yes

Units are S.I. units (second, meters, Newtons, ...)
Angles are in degrees.

endheader
time	ground_thorax_rot_x	ground_thorax_rot_y	ground_thorax_rot_z	ground_thorax_tx	ground_thorax_ty	ground_thorax_tz	clav_prot_r	clav_elev_r	scapula_abduction_r	scapula_elevation_r	scapula_upward_rot_r	scapula_winging_r	shoulder_elv_r	plane_of_elev_r	axial_rot_r	elbow_flexion_r	pro_sup_r	wrist_flex_r	wrist_dev_r	clav_prot_l	clav_elev_l	scapula_abduction_l	scapula_elevation_l	scapula_upward_rot_l	scapula_winging_l	shoulder_elv_l	plane_of_elev_l	axial_rot_l	elbow_flexion_l	pro_sup_l	wrist_flex_l	wrist_dev_l	
3.7300	0.734202	9.509570	-0.231649	-0.187890	0.999596	0.012545	-21.488614	-13.010639	-29.553321	-8.033539	6.032059	4.786709	54.793601	-38.920777	37.604289	88.805299	13.500051	5.862795	5.735212	-3.060859	-4.158361	2.316530	-3.399135	-3.272484	-1.066015	48.627176	-38.907848	-16.708535	86.929777	17.398599	-2.799992	-14.325247	
3.7400	0.694989	9.576792	-0.176356	-0.188104	0.999606	0.012484	-21.403004	-13.182282	-29.395591	-8.184194	6.016132	4.889841	54.138567	-37.941298	36.724981	87.960571	12.813475	4.734176	6.769974	-2.938290	-4.214141	2.092401	-3.357826	-3.292290	-1.025844	48.703949	-38.034037	-16.491565	87.014619	16.915609	-1.619447	-13.129729	
3.7500	0.659464	9.646403	-0.116931	-0.188321	0.999578	0.012441	-21.310533	-13.341310	-29.238011	-8.316650	5.982879	4.990230	53.477858	-36.913802	35.829866	87.016431	12.130680	3.613389	7.830067	-2.802951	-4.276748	1.863128	-3.329484	-3.359149	-0.992489	48.808545	-37.086644	-16.270467	87.011879	16.371446	-0.406700	-11.891333	
3.7600	0.625529	9.708076	-0.059558	-0.188529	0.999550	0.012405	-21.210335	-13.515113	-29.074636	-8.457165	5.933470	5.103162	52.834105	-35.858291	34.948894	85.960524	11.491881	2.552674	8.856905	-2.660818	-4.359992	1.634294	-3.298945	-3.467345	-0.969879	48.934437	-36.087087	-16.030440	86.910911	15.801247	0.770468	-10.672804	
3.7700	0.595367	9.773589	0.008489	-0.188742	0.999478	0.012380	-21.099926	-13.670373	-28.907054	-8.573551	5.866194	5.210412	52.197844	-34.761244	34.065079	84.798888	10.853547	1.514370	9.914473	-2.502956	-4.447670	1.397759	-3.286098	-3.628550	-0.953413	49.093650	-35.018925	-15.791183	86.721175	15.183291	1.988176	-9.411072	
3.7800	0.564716	9.831152	0.074876	-0.188945	0.999412	0.012355	-20.980624	-13.839987	-28.731262	-8.697806	5.783501	5.329606	51.586274	-33.639061	33.207332	83.511025	10.252970	0.552106	10.938260	-2.337991	-4.555611	1.163913	-3.274496	-3.838498	-0.948949	49.281250	-33.897490	-15.529050	86.430277	14.551009	3.171945	-8.170215	
3.7900	0.533113	9.886627	0.143179	-0.189143	0.999325	0.012330	-20.849929	-14.008195	-28.544619	-8.815557	5.687139	5.451706	50.989839	-32.488524	32.364858	82.102811	9.661426	-0.365585	11.962437	-2.160927	-4.672622	0.923998	-3.272568	-4.092192	-0.950644	49.499358	-32.722374	-15.260552	86.047985	13.901230	4.360412	-6.920481	
3.8000	0.497966	9.934812	0.202576	-0.189326	0.999252	0.012295	-20.709582	-14.197499	-28.345023	-8.949053	5.579902	5.588234	50.416475	-31.322199	31.551909	80.559837	9.099650	-1.201097	12.942190	-1.978616	-4.807913	0.683628	-3.267335	-4.378694	-0.960500	49.738373	-31.503479	-14.972012	85.561093	13.263864	5.501052	-5.713076	
3.8100	0.457813	9.978542	0.250246	-0.189494	0.999176	0.012248	-20.557532	-14.402480	-28.128646	-9.094109	5.464484	5.735982	49.856728	-30.140538	30.758160	78.887571	8.554624	-1.979566	13.892259	-1.788618	-4.954158	0.434049	-3.259452	-4.682839	-0.972172	49.993139	-30.247021	-14.673832	84.976368	12.643683	6.611158	-4.538722	
3.8200	0.412357	10.022660	0.294597	-0.189654	0.999095	0.012187	-20.394296	-14.614317	-27.896721	-9.242754	5.341966	5.889396	49.310752	-28.945070	29.986367	77.081310	8.016898	-2.691037	14.816556	-1.588466	-5.107766	0.174185	-3.255749	-5.013039	-0.985274	50.268613	-28.944947	-14.368660	84.285713	12.039205	7.706388	-3.392689	
3.8300	0.362651	10.061751	0.333166	-0.189802	0.999026	0.012109	-20.216445	-14.847165	-27.638132	-9.411069	5.219941	6.055899	48.786721	-27.756221	29.249644	75.150094	7.508056	-3.340284	15.685752	-1.377973	-5.274635	-0.104825	-3.242544	-5.349117	-0.995961	50.551313	-27.626031	-14.059758	83.489283	11.474960	8.759144	-2.301950	
3.8400	0.309041	10.109113	0.378244	-0.189949	0.998939	0.012014	-20.026067	-15.074327	-27.360508	-9.573017	5.096417	6.219716	48.274561	-26.560273	28.535422	73.092659	6.999650	-3.926705	16.534020	-1.151105	-5.443195	-0.404758	-3.238689	-5.710632	-1.003033	50.858648	-26.263338	-13.761194	82.580142	10.929078	9.822116	-1.235605	
3.8500	0.253600	10.154817	0.413318	-0.190084	0.998871	0.011902	-19.820221	-15.325618	-27.051239	-9.759827	4.979563	6.397276	47.787310	-25.380115	27.859282	70.920081	6.532544	-4.448759	17.308766	-0.911629	-5.629345	-0.731550	-3.218108	-6.069965	-1.005061	51.172709	-24.891064	-13.465997	81.558001	10.433650	10.838029	-0.239848	
3.8600	0.196882	10.211777	0.447325	-0.190217	0.998790	0.011777	-19.600747	-15.574289	-26.717926	-9.945266	4.866844	6.572959	47.313473	-24.199185	27.204299	68.633367	6.079583	-4.908743	18.047032	-0.653921	-5.821690	-1.087290	-3.197824	-6.442792	-1.000357	51.508362	-23.482450	-13.188202	80.417024	9.963908	11.859791	0.716763	
3.8700	0.140355	10.265398	0.465428	-0.190331	0.998741	0.011640	-19.365374	-15.856383	-26.346958	-10.167130	4.768497	6.766063	46.869694	-23.046586	26.595445	66.242757	5.691614	-5.289435	18.683552	-0.384714	-6.036166	-1.475419	-3.148758	-6.794333	-0.987020	51.836402	-22.080432	-12.916303	79.151172	9.562107	12.809322	1.566091	
3.8800	0.082268	10.338415	0.500746	-0.190446	0.998650	0.011497	-19.119163	-16.111473	-25.956444	-10.366069	4.679179	6.940894	46.431144	-21.891555	26.013511	63.748611	5.310862	-5.585014	19.296037	-0.092075	-6.240256	-1.896533	-3.118885	-7.167684	-0.961468	52.186395	-20.629831	-12.673966	77.753412	9.176342	13.800591	2.370481	
3.8900	0.025952	10.417300	0.539709	-0.190545	0.998567	0.011350	-18.858635	-16.375312	-25.532330	-10.578851	4.606777	7.117548	46.021751	-20.769441	25.489580	61.178693	4.992540	-5.797559	19.818863	0.217816	-6.454977	-2.353827	-3.075537	-7.530982	-0.923874	52.533390	-19.177194	-12.452785	76.222039	8.843093	14.759471	3.083785	
3.9000	-0.027617	10.514422	0.588543	-0.190632	0.998463	0.011202	-18.588824	-16.623050	-25.087611	-10.780926	4.548063	7.281678	45.628783	-19.662989	25.002645	58.537167	4.718001	-5.925939	20.276964	0.548476	-6.668437	-2.845721	-3.035910	-7.899252	-0.873339	52.885762	-17.693504	-12.260963	74.555295	8.538359	15.737137	3.734749	
